/* XPM */
static char *c318f024f18a4434d2ef3dfa69116bf3RMFMUmVzOt4Gn0q1[] = {
/* columns rows colors chars-per-pixel */
"31 31 91 1 ",
"  c #020202",
". c #0B0B0B",
"X c #131313",
"o c #1D1D1D",
"O c #222222",
"+ c #292929",
"@ c gray20",
"# c gray24",
"$ c #454545",
"% c #4C4C4C",
"& c #515151",
"* c #5A5A5A",
"= c #7D534D",
"- c #7F584F",
"; c #7F5B51",
": c #656565",
"> c #6C6C6C",
", c #767676",
"< c #797979",
"1 c #80584E",
"2 c #845651",
"3 c #835D54",
"4 c #885C55",
"5 c #865E58",
"6 c #866157",
"7 c #8A6157",
"8 c #876259",
"9 c #8B635B",
"0 c #8E685E",
"q c #90665F",
"w c #8F6660",
"e c #8D6C64",
"r c #936C64",
"t c #8D7067",
"y c #8C746D",
"u c #96776D",
"i c #8E7570",
"p c #8E7A74",
"a c #927672",
"s c #957973",
"d c #947E7A",
"f c #8E827E",
"g c #92827D",
"h c #9E847C",
"j c #A1867E",
"k c gray51",
"l c #8F8682",
"z c #8E8E8E",
"x c #908785",
"c c #938886",
"v c #9A8984",
"b c #948D8C",
"n c #998C89",
"m c #93908E",
"M c #9A908E",
"N c #949392",
"B c #9A9593",
"V c #9B9C9C",
"C c #A38880",
"Z c #B5A19B",
"A c #B8A09A",
"S c #A2A2A2",
"D c #ACACAC",
"F c #B0AFAF",
"G c #B2B2B2",
"H c #B4B4B4",
"J c #BBBBBB",
"K c gray74",
"L c #C3B3AF",
"P c #CEC1BD",
"I c #C1C1C1",
"U c #C5C5C6",
"Y c #C8C8C8",
"T c gray80",
"R c #D6CECB",
"E c #D2D2D2",
"W c gray84",
"Q c gray86",
"! c gainsboro",
"~ c #E1DDDC",
"^ c gray89",
"/ c #E6E6E6",
"( c #E9E9E9",
") c #EBEBEB",
"_ c #ECECEC",
"` c gray93",
"' c #EEF0F0",
"] c gray94",
"[ c #F2F2F3",
"{ c #F2F5F5",
"} c #F4F4F4",
/* pixels */
"                               ",
"                               ",
"          @>:::::::>:.         ",
"       .o>Y}]]]]]]]]`D$.       ",
"       NE/](````````(]^z       ",
"     @V(]``(((((((((]``]<      ",
"    +Y}(`^QHDDDDDDDHQ^``(:     ",
"   XH}(]^DVVVVVVVVVVVDE(]^%    ",
"   %```/GVVVVVVVVVVVVVVY`]E+   ",
"   D]`ESVVVVVVMBVBVVVVVVE`]>   ",
"  $!]QSVVVVVncdddvVVVVVVD(]K.  ",
"  ,}`IVVBBaxleewrbggVVVVD(}J.  ",
"  >}^SVVspeey7990iepmbBVD(}J.  ",
"  >}^SVVbe7999q7499etenVF(}J   ",
"  k}^Snbfe7987r7329q9eNVD``Ko  ",
" oG(/Saee98783397=377txnU]QU*  ",
" OGW`UVt759897333333709Z'`YU*  ",
" OGY(`!v3308899339687rA/]^KU*  ",
" OGIT(]Ru6731;3-38330P{`QUKU*  ",
" OGIKE`'~ZjCjjhhhhhhL]`WKKKU*  ",
" OGIKKE/]`(((((((((`'/WIKKKU*  ",
" OHIKKKUW(]]]]]]]]]`QUKKKKKK&  ",
" XVUKKIKKU!!!!!!!!!YKKKKKKUVX  ",
"  +DIKKKLKKKKKKKKKKKKKKKKKUN   ",
"   kUKKKKKKPKKKKKKKKKKKKKIH#   ",
"   OSUKKKKKIKKKKKKKKKKKKIK%    ",
"    +VKKKKKKKKKKKKKKKKKIG:     ",
"     X,UIIIIIIIIIIIIIIJk+      ",
"      X*DHGGGGGGHHGGGJ>        ",
"        O+++++++++++++.        ",
"                               "
};
