/* XPM */
static char *_2cfcb86c14a4d08b1fc555e45e027abOqbkhGzfarBWZduU[] = {
/* columns rows colors chars-per-pixel */
"31 31 50 1 ",
"  c None",
". c gray13",
"X c #FDD5B5",
"o c #F9F4EA",
"O c #D78C77",
"+ c white",
"@ c #110000",
"# c black",
"$ c #030306",
"% c #F8F3E9",
"& c #F6EFE6",
"* c #010400",
"= c #000200",
"- c #EB9486",
"; c #000118",
": c #01010E",
"> c #E3A266",
", c #07030E",
"< c #0A0000",
"1 c #05010E",
"2 c #010208",
"3 c #E6B4A0",
"4 c #04041F",
"5 c #E2A06B",
"6 c #00050F",
"7 c #040106",
"8 c #E6A566",
"9 c #0E0A20",
"0 c #E7A464",
"q c #E8A265",
"w c #E2A366",
"e c #E4A367",
"r c #994F39",
"t c #E6A46A",
"y c #E5A969",
"u c #B4644D",
"i c #000004",
"p c #000009",
"a c #000110",
"s c #E5A86B",
"d c #AF6953",
"f c #000013",
"g c #E5A86D",
"h c #B3644D",
"j c #E6A869",
"k c #E8A96A",
"l c #E3A96D",
"z c #E4AA6E",
"x c #E6A96C",
"c c #00000D",
/* pixels */
"                    ...        ",
"                   .XXX.       ",
"                  .XXoXX.      ",
"      ..          .XXooo.      ",
"     .XX.        ..XXooo.      ",
"     .XOX.      .XX.XXooX.     ",
"     .XOOX......XXOX.XooX.     ",
"     .XOXXXXXXXXXOOX.XoooX.    ",
"     .XXXXXXXXXXXOOX..XooX.    ",
"     .XXXXXXXXXXXXXX. .ooX.    ",
"     .XXXXXXXXXXXXXX. .ooX.    ",
"    .XX+@XXXX+#XXXXX. .ooX.    ",
"    .XX$#o%o&*=XXXXXX.ooo.     ",
"    .--ooo;oooo--XXXX.ooo.     ",
"   :>:::o,o<ooo--XXX....o1:2   ",
"  :>>>>>:ooooooooXX.333::>>>4  ",
" :>>>>5>>:::6oooo..3:::>>>>>>7 ",
":>>8>>>>>>>>>.3333::>>>>>>>>>>:",
"9>0>>>>>>>>>>>::::>>>>>>>>>>>>:",
":>>>>>>>>>>>>>>>:q>w>>e>>>>>>>:",
" ::>>>>>>>>>>>>:r:>>t>>>>>>>:: ",
"   ::>>>>>>>>>:yru:>>>>>>>::i  ",
"   :y:::>>>>>>:yruu::>>>::uup  ",
"   :yyyy::>>>:yyruuuu:::uuuua  ",
"   :yyyyyy:::yyyruuuuuuuuuuu:  ",
"   :yyyyyyyyyyysruuuuuuuuuudf  ",
"    :yyyyyyyyyygruuuuhuuuu::   ",
"     :::yyyyjkylruuuuuuu::     ",
"        :::yyyyzruuuu:::       ",
"           :::yxruu::          ",
"              ::c::            "
};
