/* XPM */
static char *cc6a2af2a97f47109fde8d234aa22460pM1FtugeWoaHNFuX[] = {
/* columns rows colors chars-per-pixel */
"31 31 19 1 ",
"  c black",
". c #000004",
"X c #000009",
"o c #01010E",
"O c #05010E",
"+ c #00050F",
"@ c #000013",
"# c #04041F",
"$ c gray13",
"% c #994F39",
"& c #B3644D",
"* c #B4644D",
"= c #AF6953",
"- c #E3A266",
"; c #E2A06B",
": c #E5A969",
"> c #E3A96D",
", c #E6A96C",
"< c #E8A96A",
/* pixels */
"                               ",
"                               ",
"                               ",
"                               ",
"                               ",
"                               ",
"                               ",
"                               ",
"                               ",
"              ,,--             ",
"             ,,,,,--           ",
"         ,--**-,,,,,,,,        ",
"        ,,,,,,*--,,,,,,,-      ",
"    $,,,,,-,,,,**,,,,,,,,,--   ",
"   o-ooo,,,,--,,,**,,----OoX   ",
"    ----o-,,,,,,,,,*,,-oo***#  ",
"    --;--ooo+-,,,,,-ooo*****   ",
"    ---------$,,,-oo********   ",
"    ----------oooo**********   ",
"    ------------o***********   ",
"    ------------%***********o  ",
"   o-----------:%***********.  ",
"   o:----------:%***********X  ",
"   o:::--------:%***********@  ",
"   o::::-----:::%***********o  ",
"   o::::::::::::%**********=@  ",
"    o::::::::::,%****&****oo   ",
"     ooo:::::<:>%*******oo     ",
"        ooo::::,%****ooo       ",
"           ooo:,%**oo          ",
"              ooooo            "
};
