/* XPM */
static char *_eab53634a8c4230db38824110ee3297weTBNR5f7tw1itxy[] = {
/* columns rows colors chars-per-pixel */
"31 31 10 1 ",
"  c black",
". c gray13",
"X c #D78C77",
"o c #EB9486",
"O c #E6B4A0",
"+ c #FDD5B5",
"@ c #F6EFE6",
"# c #F8F3E9",
"$ c #F9F4EA",
"% c white",
/* pixels */
"       ...           ..        ",
"      .++............+.        ",
"      .XX+.++O+O+++.+XX.       ",
"      .XX+.++O+O+++.+XX.       ",
"      .XX++++O+O++++++X.       ",
"      .++++++++O++++++X.       ",
"      .++++++++++++++++.       ",
"     .+++++++++++++++++.       ",
"     .+++%% +++++%% +++.       ",
"     .+++%% +++++%% +++.       ",
"     .+++   ++ ++   +++.       ",
"     .+ooo$## $ #$$$oo+.       ",
"      .ooo$@####$##$oo$.       ",
"      .$$$$#########$$.        ",
"       ..$###########.         ",
"         .+######$$O.          ",
"         .#OOOOOOOO$.  ..      ",
"         .$$$$$#$$$$O..OO.     ",
"         .$$$$$#$$$$O..OO.     ",
"       ..$$$$$$$$$$$OO.OOO.    ",
"       ..##$$$$$#####O..OO.    ",
"       ..$##$$$####$$O. .$O..  ",
"       ..$###.#####O#$.. .$OO. ",
"       ..$###.###$$O##$$..$OO. ",
"    .....O###.$$$.....O$.$$OO. ",
"   .$####.##$.#$.$$$$$O$.$OOO. ",
"   .O$###.$#$.$$.OO$$$OO$OO..  ",
"   .O$###.$#$.$$.OO$$$OO$OO.   ",
"   .OO###.$$$.$$.OOO$$OOOO.    ",
"    .OO##.OOO.$$.OOOOOO...     ",
"     ..................        "
};
