/* XPM */
static char *c353f46b6be64dcd8d136dfe1940bbc5sTaLLaohutpt3uhc[] = {
/* columns rows colors chars-per-pixel */
"31 31 20 1 ",
"  c #48536D",
". c #A0ABC4",
"X c #9AA6BE",
"o c #9DA9C1",
"O c #424C66",
"+ c #AEB9D2",
"@ c #3E4862",
"# c #68738D",
"$ c #A7B2CB",
"% c #919DB5",
"& c #C7D1E9",
"* c #5F6981",
"= c #515B76",
"- c #B4BFD8",
"; c #BAC4DC",
": c #8B96B0",
"> c #C2CDE5",
", c #727C96",
"< c #5A647D",
"1 c #838EA7",
/* pixels */
" ************<@@ ************<@",
"%-;;;;;;;;;;;+# :-;;;;;;;;;;-$,",
".&>;;;;;;;;-$:*=o&>;;-------.:*",
".&-........X,<  X>+..o.....%,< ",
".>+o.$.XXXX%# O X&+o.$.XXXX:# O",
".>+o+-$oXXX%# O X&+.+-$XXXX:# O",
"o>+o$+$oXXX%# O o&+.++$XXXX:# O",
"o>+o..oXXXo%# O X&+o..oXXXX:# O",
"o&+.ooX.+-$%# O X&+oXXX.+-$%# O",
".&+.ooXo+-$%# O X&+oXXX.++$%# O",
".&+oXXXX...%# @ o&+oXXXXo..%# O",
".&.::::::::1* @ o>.::::::::1* O",
"o>1*<******<= @ o;1********<= O",
":.#   O       @ :o#      O    O",
" = O@@@OOOOOO@@@== O@OOO@@@@O@@",
"O=============O@ ============= ",
"1$+++++++++++$# :++++++++++-+.#",
"o>&>>>>>>>>>;$* o&&&&&&&&&&>;$,",
".&-$$$$$$$$.1#  X&-$$$$$$$$o1*=",
".&+Xo.oXXXo%# O o&+...oXXXX%# O",
".&+o+-$XXXX%# @=o&+.++$XXXX:# @",
".&+o+-$XXXX%# @=o&+.+-$XXXX:# O",
".&+o..oXXXX%# O=o&+o.$.XXXX:# O",
"o&+ooXXo$+$%# O o&+oXXXo$+.%# O",
"o>+oooX.+-$%# @ o&+oXXX.+-$%# O",
"o>+oooo.$+$%# @ o&+oXXXo$$.:# O",
"o>$%%%%%%%%:# @ X&$%%%%%%%%1* O",
".>%,########< @ X>%,########= O",
"%-,=          O %+,=        = @",
"*,<OOOOOOOOOOO@O##=OOOOOOOOOOO@",
"@O@@@@@@@@@@@@@@OO@@@@@@@@@@@@@"
};
